<?xml version="1.0" encoding="utf-8"?>
<svg viewBox="-6.897 1.836 167.252 141.022" width="167.252" height="141.022" xmlns="http://www.w3.org/2000/svg" xmlns:bx="https://boxy-svg.com">
  <mask id="mask-1">
    <rect x="-60" y="-60" width="120" height="120" fill="white"/>
    <circle id="circle-1" cy="-40" r="3"/>
    <circle cy="-40" r="3" transform="matrix(0.30901699437494745, 0.9510565162951535, -0.9510565162951535, 0.30901699437494745, 0, 0)"/>
    <circle cy="-40" r="3" transform="matrix(-0.8090169943749473, 0.5877852522924732, -0.5877852522924732, -0.8090169943749473, 0, 0)"/>
    <circle cy="-40" r="3" transform="matrix(-0.8090169943749475, -0.587785252292473, 0.587785252292473, -0.8090169943749475, 0, 0)"/>
    <circle cy="-40" r="3" transform="matrix(0.30901699437494723, -0.9510565162951536, 0.9510565162951536, 0.30901699437494723, 0, 0)"/>
  </mask>
  <g id="g-2" mask="url(#mask-1)" transform="matrix(1.019608, 0, 0, 1.019608, 76.548432, 52.835881)" style="">
    <g id="logo" transform="matrix(0.980769, 0, 0, 0.980769, -0.474121, 1.141734)" style="">
      <path style="stroke: rgb(0, 0, 0);" d="M 8.421 -26.4 A 46.287 46.287 0 1 1 8.421 59.128 A 43.435 43.435 0 1 0 8.421 -26.4 Z" transform="matrix(-0.642788, 0.766044, -0.766044, -0.642788, 28.728226, -9.405251)" bx:shape="crescent 26.134 16.364 46.287 225 0.86 1@8dbf5e5a"/>
      <g id="cogs" style="" transform="matrix(1, 0, 0, 1, 0, -1)" mask="url(#holes)">
        <polygon stroke="black" stroke-width="3" stroke-linejoin="round" points="46,3 51,0 46,-3" transform="matrix(0.7071067811865476, 0.7071067811865476, -0.7071067811865476, 0.7071067811865476, 0, 0)"/>
        <polygon stroke="black" stroke-width="3" stroke-linejoin="round" points="46,3 51,0 46,-3" transform="matrix(0.5555702330196023, 0.8314696123025452, -0.8314696123025452, 0.5555702330196023, 0, 0)"/>
        <polygon stroke="black" stroke-width="3" stroke-linejoin="round" points="46,3 51,0 46,-3" transform="matrix(0.38268343236508984, 0.9238795325112867, -0.9238795325112867, 0.38268343236508984, 0, 0)"/>
        <polygon stroke="black" stroke-width="3" stroke-linejoin="round" points="46,3 51,0 46,-3" transform="matrix(0.19509032201612833, 0.9807852804032304, -0.9807852804032304, 0.19509032201612833, 0, 0)"/>
        <polygon stroke="black" stroke-width="3" stroke-linejoin="round" points="46,3 51,0 46,-3" transform="matrix(6.123233995736766e-17, 1, -1, 6.123233995736766e-17, 0, 0)"/>
        <polygon stroke="black" stroke-width="3" stroke-linejoin="round" points="46,3 51,0 46,-3" transform="matrix(-0.1950903220161282, 0.9807852804032304, -0.9807852804032304, -0.1950903220161282, 0, 0)"/>
        <polygon stroke="black" stroke-width="3" stroke-linejoin="round" points="46,3 51,0 46,-3" transform="matrix(-0.3826834323650897, 0.9238795325112867, -0.9238795325112867, -0.3826834323650897, 0, 0)"/>
        <polygon stroke="black" stroke-width="3" stroke-linejoin="round" points="46,3 51,0 46,-3" transform="matrix(-0.5555702330196023, 0.8314696123025451, -0.8314696123025451, -0.5555702330196023, 0, 0)"/>
        <polygon stroke="black" stroke-width="3" stroke-linejoin="round" points="46,3 51,0 46,-3" transform="matrix(-0.7071067811865475, 0.7071067811865476, -0.7071067811865476, -0.7071067811865475, 0, 0)"/>
        <polygon stroke="black" stroke-width="3" stroke-linejoin="round" points="46,3 51,0 46,-3" transform="matrix(-0.8314696123025453, 0.5555702330196022, -0.5555702330196022, -0.8314696123025453, 0, 0)"/>
        <polygon stroke="black" stroke-width="3" stroke-linejoin="round" points="46,3 51,0 46,-3" transform="matrix(-0.9238795325112867, 0.3826834323650899, -0.3826834323650899, -0.9238795325112867, 0, 0)"/>
        <polygon stroke="black" stroke-width="3" stroke-linejoin="round" points="46,3 51,0 46,-3" transform="matrix(-0.9807852804032304, 0.19509032201612816, -0.19509032201612816, -0.9807852804032304, 0, 0)"/>
        <polygon stroke="black" stroke-width="3" stroke-linejoin="round" points="46,3 51,0 46,-3" transform="matrix(-1, 1.2246467991473532e-16, -1.2246467991473532e-16, -1, 0, 0)"/>
        <polygon stroke="black" stroke-width="3" stroke-linejoin="round" points="46,3 51,0 46,-3" transform="matrix(-0.9807852804032304, -0.19509032201612836, 0.19509032201612836, -0.9807852804032304, 0, 0)"/>
        <polygon stroke="black" stroke-width="3" stroke-linejoin="round" points="46,3 51,0 46,-3" transform="matrix(-0.9238795325112868, -0.38268343236508967, 0.38268343236508967, -0.9238795325112868, 0, 0)"/>
        <polygon stroke="black" stroke-width="3" stroke-linejoin="round" points="46,3 51,0 46,-3" transform="matrix(-0.8314696123025452, -0.5555702330196023, 0.5555702330196023, -0.8314696123025452, 0, 0)"/>
      </g>
      <mask id="holes">
        <rect x="-60" y="-60" width="120" height="120" fill="white"/>
        <circle id="hole" cy="-40" r="3"/>
        <circle cy="-40" r="3" transform="matrix(0.30901699437494745, 0.9510565162951535, -0.9510565162951535, 0.30901699437494745, 0, 0)"/>
        <circle cy="-40" r="3" transform="matrix(-0.8090169943749473, 0.5877852522924732, -0.5877852522924732, -0.8090169943749473, 0, 0)"/>
        <circle cy="-40" r="3" transform="matrix(-0.8090169943749475, -0.587785252292473, 0.587785252292473, -0.8090169943749475, 0, 0)"/>
        <circle cy="-40" r="3" transform="matrix(0.30901699437494723, -0.9510565162951536, 0.9510565162951536, 0.30901699437494723, 0, 0)"/>
      </mask>
    </g>
    <g id="mounts" style="">
      <polygon stroke="black" stroke-width="6" stroke-linejoin="round" points="15.63 27.647 22.63 34.647 29.63 27.647" style="" transform="matrix(-0.898793, 0.438373, -0.438373, -0.898793, 56.62369, 49.221332)"/>
      <polygon stroke="black" stroke-width="6" stroke-linejoin="round" points="-7,-42 0,-35 7,-42" style="" transform="matrix(-0.8090169943749475, -0.587785252292473, 0.587785252292473, -0.8090169943749475, 0, 0)"/>
      <polygon stroke="black" stroke-width="6" stroke-linejoin="round" points="-43.616 -15.397 -36.616 -8.397 -29.616 -15.397" style="" transform="matrix(0.139173, -0.990268, 0.990268, 0.139173, -19.738832, -46.50092)"/>
    </g>
  </g>
  <path d="M 27.547 117.626 L 27.547 122.218 L 26.147 122.218 L 26.147 134.818 L 27.547 134.818 L 27.547 139.41 L 16.963 139.41 L 16.963 134.818 L 18.307 134.818 L 18.307 125.018 L 13.547 139.41 L 9.403 139.41 L 4.503 125.158 L 4.503 134.818 L 5.847 134.818 L 5.847 139.41 L -3.337 139.41 L -3.337 134.818 L -1.937 134.818 L -1.937 122.218 L -3.337 122.218 L -3.337 117.626 L 9.487 117.626 L 12.399 126.362 L 15.199 117.626 L 27.547 117.626 Z M 96.315 134.818 L 96.315 132.522 L 101.887 132.522 L 101.887 139.41 L 83.379 139.41 L 83.379 135.378 L 92.003 122.218 L 89.091 122.218 L 89.091 124.514 L 83.519 124.514 L 83.519 117.626 L 101.439 117.626 L 101.439 121.658 L 92.843 134.818 L 96.315 134.818 Z M 81.363 134.818 L 82.595 134.818 L 82.595 139.41 L 73.747 139.41 L 73.747 134.818 L 74.923 134.818 L 74.923 130.226 C 74.923 129.859 74.877 129.55 74.784 129.299 C 74.728 129.141 74.643 128.994 74.531 128.868 C 74.379 128.702 74.183 128.58 73.966 128.517 C 73.832 128.476 73.684 128.45 73.522 128.439 C 73.467 128.436 73.411 128.434 73.355 128.434 C 73.127 128.431 72.9 128.462 72.68 128.526 C 72.188 128.68 71.877 129.026 71.746 129.565 C 71.697 129.782 71.673 130.004 71.675 130.226 L 71.675 134.818 L 72.851 134.818 L 72.851 139.41 L 64.003 139.41 L 64.003 134.818 L 65.235 134.818 L 65.235 128.434 L 64.003 128.434 L 64.003 123.842 L 71.675 123.842 L 71.675 126.026 C 73.019 124.309 74.699 123.45 76.715 123.45 C 77.176 123.446 77.636 123.496 78.085 123.599 C 78.92 123.78 79.667 124.241 80.201 124.906 C 80.855 125.725 81.233 126.803 81.335 128.14 C 81.355 128.396 81.364 128.653 81.363 128.91 L 81.363 134.818 Z M 155.535 134.818 L 156.767 134.818 L 156.767 139.41 L 147.919 139.41 L 147.919 134.818 L 149.095 134.818 L 149.095 130.226 C 149.095 129.859 149.049 129.55 148.956 129.299 C 148.9 129.141 148.815 128.994 148.703 128.868 C 148.551 128.702 148.355 128.58 148.138 128.517 C 148.004 128.476 147.856 128.45 147.694 128.439 C 147.639 128.436 147.583 128.434 147.527 128.434 C 147.299 128.431 147.072 128.462 146.852 128.526 C 146.36 128.68 146.049 129.026 145.918 129.565 C 145.869 129.782 145.845 130.004 145.847 130.226 L 145.847 134.818 L 147.023 134.818 L 147.023 139.41 L 138.175 139.41 L 138.175 134.818 L 139.407 134.818 L 139.407 128.434 L 138.175 128.434 L 138.175 123.842 L 145.847 123.842 L 145.847 126.026 C 147.191 124.309 148.871 123.45 150.887 123.45 C 151.348 123.446 151.808 123.496 152.257 123.599 C 153.092 123.78 153.839 124.241 154.373 124.906 C 155.027 125.725 155.405 126.803 155.507 128.14 C 155.527 128.396 155.536 128.653 155.535 128.91 L 155.535 134.818 Z M 34.44 139.558 C 35.268 139.726 36.111 139.808 36.955 139.802 C 38.073 139.802 39.089 139.678 40.001 139.431 C 41.183 139.129 42.272 138.54 43.171 137.716 C 43.525 137.387 43.84 137.018 44.109 136.617 C 44.608 135.874 44.964 135.009 45.176 134.021 C 45.339 133.233 45.418 132.43 45.411 131.626 C 45.411 131.49 45.409 131.353 45.405 131.217 C 45.379 130.338 45.266 129.531 45.067 128.796 C 44.757 127.566 44.11 126.447 43.199 125.564 C 42.842 125.223 42.448 124.922 42.025 124.666 C 41.264 124.206 40.391 123.877 39.405 123.678 C 38.598 123.521 37.778 123.445 36.955 123.45 C 35.837 123.45 34.822 123.574 33.909 123.821 C 32.728 124.123 31.639 124.712 30.739 125.536 C 30.386 125.865 30.071 126.234 29.801 126.635 C 29.303 127.378 28.947 128.243 28.734 129.231 C 28.572 130.019 28.493 130.822 28.499 131.626 C 28.499 131.826 28.504 132.026 28.512 132.226 C 28.55 133.075 28.669 133.855 28.87 134.566 C 29.188 135.77 29.835 136.861 30.739 137.716 C 31.032 137.988 31.347 138.234 31.681 138.452 C 32.477 138.969 33.396 139.338 34.44 139.558 Z M 52.136 139.558 C 52.964 139.726 53.807 139.808 54.651 139.802 C 55.769 139.802 56.785 139.678 57.697 139.431 C 58.879 139.129 59.968 138.54 60.867 137.716 C 61.221 137.387 61.536 137.018 61.805 136.617 C 62.304 135.874 62.66 135.009 62.872 134.021 C 63.035 133.233 63.114 132.43 63.107 131.626 C 63.107 131.49 63.105 131.353 63.101 131.217 C 63.075 130.338 62.962 129.531 62.763 128.796 C 62.453 127.566 61.806 126.447 60.895 125.564 C 60.538 125.223 60.144 124.922 59.721 124.666 C 58.96 124.206 58.087 123.877 57.101 123.678 C 56.294 123.521 55.474 123.445 54.651 123.45 C 53.533 123.45 52.518 123.574 51.605 123.821 C 50.424 124.123 49.335 124.712 48.435 125.536 C 48.082 125.865 47.767 126.234 47.497 126.635 C 46.999 127.378 46.643 128.243 46.43 129.231 C 46.268 130.019 46.189 130.822 46.195 131.626 C 46.195 131.826 46.2 132.026 46.208 132.226 C 46.246 133.075 46.365 133.855 46.566 134.566 C 46.884 135.77 47.531 136.861 48.435 137.716 C 48.728 137.988 49.043 138.234 49.377 138.452 C 50.173 138.969 51.092 139.338 52.136 139.558 Z M 108.612 139.558 C 109.44 139.726 110.283 139.808 111.127 139.802 C 112.245 139.802 113.261 139.678 114.173 139.431 C 115.355 139.129 116.444 138.54 117.343 137.716 C 117.697 137.387 118.012 137.018 118.281 136.617 C 118.78 135.874 119.136 135.009 119.348 134.021 C 119.511 133.233 119.59 132.43 119.583 131.626 C 119.583 131.49 119.581 131.353 119.577 131.217 C 119.551 130.338 119.438 129.531 119.239 128.796 C 118.929 127.566 118.282 126.447 117.371 125.564 C 117.014 125.223 116.62 124.922 116.197 124.666 C 115.436 124.206 114.563 123.877 113.577 123.678 C 112.77 123.521 111.95 123.445 111.127 123.45 C 110.009 123.45 108.994 123.574 108.081 123.821 C 106.9 124.123 105.811 124.712 104.911 125.536 C 104.558 125.865 104.243 126.234 103.973 126.635 C 103.475 127.378 103.119 128.243 102.906 129.231 C 102.744 130.019 102.665 130.822 102.671 131.626 C 102.671 131.826 102.676 132.026 102.684 132.226 C 102.722 133.075 102.841 133.855 103.042 134.566 C 103.36 135.77 104.007 136.861 104.911 137.716 C 105.204 137.988 105.519 138.234 105.853 138.452 C 106.649 138.969 107.568 139.338 108.612 139.558 Z M 126.308 139.558 C 127.136 139.726 127.979 139.808 128.823 139.802 C 129.941 139.802 130.957 139.678 131.869 139.431 C 133.051 139.129 134.14 138.54 135.039 137.716 C 135.393 137.387 135.708 137.018 135.977 136.617 C 136.476 135.874 136.832 135.009 137.044 134.021 C 137.207 133.233 137.286 132.43 137.279 131.626 C 137.279 131.49 137.277 131.353 137.273 131.217 C 137.247 130.338 137.134 129.531 136.935 128.796 C 136.625 127.566 135.978 126.447 135.067 125.564 C 134.71 125.223 134.316 124.922 133.893 124.666 C 133.132 124.206 132.259 123.877 131.273 123.678 C 130.466 123.521 129.646 123.445 128.823 123.45 C 127.705 123.45 126.69 123.574 125.777 123.821 C 124.596 124.123 123.507 124.712 122.607 125.536 C 122.254 125.865 121.939 126.234 121.669 126.635 C 121.171 127.378 120.815 128.243 120.602 129.231 C 120.44 130.019 120.361 130.822 120.367 131.626 C 120.367 131.826 120.372 132.026 120.38 132.226 C 120.418 133.075 120.537 133.855 120.738 134.566 C 121.056 135.77 121.703 136.861 122.607 137.716 C 122.9 137.988 123.215 138.234 123.549 138.452 C 124.345 138.969 125.264 139.338 126.308 139.558 Z M 38.579 133.026 L 38.579 130.226 C 38.579 129.849 38.529 129.534 38.427 129.28 C 38.369 129.128 38.283 128.988 38.173 128.868 C 38.019 128.707 37.826 128.589 37.612 128.525 C 37.476 128.481 37.324 128.453 37.157 128.441 C 37.09 128.436 37.023 128.434 36.955 128.434 C 36.799 128.433 36.642 128.447 36.488 128.476 C 36.174 128.538 35.924 128.669 35.737 128.868 C 35.618 128.999 35.526 129.153 35.467 129.321 C 35.377 129.568 35.331 129.87 35.331 130.226 L 35.331 133.026 C 35.331 133.403 35.382 133.718 35.483 133.972 C 35.541 134.124 35.628 134.264 35.737 134.384 C 35.891 134.545 36.085 134.664 36.298 134.727 C 36.435 134.771 36.587 134.799 36.753 134.811 C 36.821 134.816 36.888 134.818 36.955 134.818 C 37.112 134.819 37.269 134.805 37.422 134.776 C 37.736 134.714 37.987 134.583 38.173 134.384 C 38.293 134.253 38.385 134.099 38.443 133.931 C 38.534 133.684 38.579 133.382 38.579 133.026 Z M 56.275 133.026 L 56.275 130.226 C 56.275 129.849 56.225 129.534 56.123 129.28 C 56.065 129.128 55.979 128.988 55.869 128.868 C 55.715 128.707 55.522 128.589 55.308 128.525 C 55.172 128.481 55.02 128.453 54.853 128.441 C 54.786 128.436 54.719 128.434 54.651 128.434 C 54.495 128.433 54.338 128.447 54.184 128.476 C 53.87 128.538 53.62 128.669 53.433 128.868 C 53.314 128.999 53.222 129.153 53.163 129.321 C 53.073 129.568 53.027 129.87 53.027 130.226 L 53.027 133.026 C 53.027 133.403 53.078 133.718 53.179 133.972 C 53.237 134.124 53.324 134.264 53.433 134.384 C 53.587 134.545 53.781 134.664 53.994 134.727 C 54.131 134.771 54.283 134.799 54.449 134.811 C 54.517 134.816 54.584 134.818 54.651 134.818 C 54.808 134.819 54.965 134.805 55.118 134.776 C 55.432 134.714 55.683 134.583 55.869 134.384 C 55.989 134.253 56.081 134.099 56.139 133.931 C 56.23 133.684 56.275 133.382 56.275 133.026 Z M 112.751 133.026 L 112.751 130.226 C 112.751 129.849 112.701 129.534 112.599 129.28 C 112.541 129.128 112.455 128.988 112.345 128.868 C 112.191 128.707 111.998 128.589 111.784 128.525 C 111.648 128.481 111.496 128.453 111.329 128.441 C 111.262 128.436 111.195 128.434 111.127 128.434 C 110.971 128.433 110.814 128.447 110.66 128.476 C 110.346 128.538 110.096 128.669 109.909 128.868 C 109.79 128.999 109.698 129.153 109.639 129.321 C 109.549 129.568 109.503 129.87 109.503 130.226 L 109.503 133.026 C 109.503 133.403 109.554 133.718 109.655 133.972 C 109.713 134.124 109.8 134.264 109.909 134.384 C 110.063 134.545 110.257 134.664 110.47 134.727 C 110.607 134.771 110.759 134.799 110.925 134.811 C 110.993 134.816 111.06 134.818 111.127 134.818 C 111.284 134.819 111.441 134.805 111.594 134.776 C 111.908 134.714 112.159 134.583 112.345 134.384 C 112.465 134.253 112.557 134.099 112.615 133.931 C 112.706 133.684 112.751 133.382 112.751 133.026 Z M 130.447 133.026 L 130.447 130.226 C 130.447 129.849 130.397 129.534 130.295 129.28 C 130.237 129.128 130.151 128.988 130.041 128.868 C 129.887 128.707 129.694 128.589 129.48 128.525 C 129.344 128.481 129.192 128.453 129.025 128.441 C 128.958 128.436 128.891 128.434 128.823 128.434 C 128.667 128.433 128.51 128.447 128.356 128.476 C 128.042 128.538 127.792 128.669 127.605 128.868 C 127.486 128.999 127.394 129.153 127.335 129.321 C 127.245 129.568 127.199 129.87 127.199 130.226 L 127.199 133.026 C 127.199 133.403 127.25 133.718 127.351 133.972 C 127.409 134.124 127.496 134.264 127.605 134.384 C 127.759 134.545 127.953 134.664 128.166 134.727 C 128.303 134.771 128.455 134.799 128.621 134.811 C 128.689 134.816 128.756 134.818 128.823 134.818 C 128.98 134.819 129.137 134.805 129.29 134.776 C 129.604 134.714 129.855 134.583 130.041 134.384 C 130.161 134.253 130.253 134.099 130.311 133.931 C 130.402 133.684 130.447 133.382 130.447 133.026 Z" vector-effect="non-scaling-stroke" stroke-linecap="round" fill-rule="evenodd" font-size="9pt" stroke="#000" stroke-width="0mm" fill="#000" style="stroke: rgb(0, 0, 0); stroke-width: 0mm; fill: rgb(0, 0, 0);"/>
  <path d="M 86.142 65.892 L 87.958 60.71 L 105.589 60.71 L 100.14 76.253 L 41.578 76.253 L 44.768 67.155 L 82.465 37.46 L 73.252 37.46 L 71.435 42.64 L 53.804 42.64 L 59.253 27.098 L 115.955 27.098 L 112.765 36.196 L 75.156 65.892 L 86.142 65.892 Z" vector-effect="non-scaling-stroke" stroke-linecap="round" fill-rule="evenodd" font-size="9pt" stroke="#000" stroke-width="0mm" fill="#000" style="stroke: rgb(0, 0, 0); stroke-width: 0mm; fill: rgb(0, 0, 0);"/>
</svg>