<?xml version="1.0" encoding="utf-8"?>
<svg viewBox="0 0 328.102 123.237" width="328.102px" height="123.237px" xmlns="http://www.w3.org/2000/svg" xmlns:bx="https://boxy-svg.com">
  <mask id="mask-1">
    <rect x="-60" y="-60" width="120" height="120" fill="white"/>
    <circle id="circle-1" cy="-40" r="3"/>
    <circle cy="-40" r="3" transform="matrix(0.30901699437494745, 0.9510565162951535, -0.9510565162951535, 0.30901699437494745, 0, 0)"/>
    <circle cy="-40" r="3" transform="matrix(-0.8090169943749473, 0.5877852522924732, -0.5877852522924732, -0.8090169943749473, 0, 0)"/>
    <circle cy="-40" r="3" transform="matrix(-0.8090169943749475, -0.587785252292473, 0.587785252292473, -0.8090169943749475, 0, 0)"/>
    <circle cy="-40" r="3" transform="matrix(0.30901699437494723, -0.9510565162951536, 0.9510565162951536, 0.30901699437494723, 0, 0)"/>
  </mask>
  <g id="g-2" mask="url(#mask-1)" transform="matrix(1.019608, 0, 0, 1.019608, 67.4208, 56.13197)" style="">
    <g id="logo" transform="matrix(0.980769, 0, 0, 0.980769, -0.474121, 1.141734)" style="">
      <path style="fill: rgb(240, 246, 252); stroke: rgb(240, 246, 252);" d="M 8.421 -26.4 A 46.287 46.287 0 1 1 8.421 59.128 A 43.435 43.435 0 1 0 8.421 -26.4 Z" transform="matrix(-0.642788, 0.766044, -0.766044, -0.642788, 28.728226, -9.405251)" bx:shape="crescent 26.134 16.364 46.287 225 0.86 1@8dbf5e5a"/>
      <g id="cogs" style="" transform="matrix(1, 0, 0, 1, 0, -1)" mask="url(#holes)">
        <polygon stroke-width="3" stroke-linejoin="round" points="46,3 51,0 46,-3" transform="matrix(0.7071067811865476, 0.7071067811865476, -0.7071067811865476, 0.7071067811865476, 0, 0)" style="fill: rgb(240, 246, 252); stroke: rgb(240, 246, 252);"/>
        <polygon stroke-width="3" stroke-linejoin="round" points="46,3 51,0 46,-3" transform="matrix(0.5555702330196023, 0.8314696123025452, -0.8314696123025452, 0.5555702330196023, 0, 0)" style="fill: rgb(240, 246, 252); stroke: rgb(240, 246, 252);"/>
        <polygon stroke-width="3" stroke-linejoin="round" points="46,3 51,0 46,-3" transform="matrix(0.38268343236508984, 0.9238795325112867, -0.9238795325112867, 0.38268343236508984, 0, 0)" style="fill: rgb(240, 246, 252); stroke: rgb(240, 246, 252);"/>
        <polygon stroke-width="3" stroke-linejoin="round" points="46,3 51,0 46,-3" transform="matrix(0.19509032201612833, 0.9807852804032304, -0.9807852804032304, 0.19509032201612833, 0, 0)" style="fill: rgb(240, 246, 252); stroke: rgb(240, 246, 252);"/>
        <polygon stroke-width="3" stroke-linejoin="round" points="46,3 51,0 46,-3" transform="matrix(6.123233995736766e-17, 1, -1, 6.123233995736766e-17, 0, 0)" style="fill: rgb(240, 246, 252); stroke: rgb(240, 246, 252);"/>
        <polygon stroke-width="3" stroke-linejoin="round" points="46,3 51,0 46,-3" transform="matrix(-0.1950903220161282, 0.9807852804032304, -0.9807852804032304, -0.1950903220161282, 0, 0)" style="fill: rgb(240, 246, 252); stroke: rgb(240, 246, 252);"/>
        <polygon stroke-width="3" stroke-linejoin="round" points="46,3 51,0 46,-3" transform="matrix(-0.3826834323650897, 0.9238795325112867, -0.9238795325112867, -0.3826834323650897, 0, 0)" style="fill: rgb(240, 246, 252); stroke: rgb(240, 246, 252);"/>
        <polygon stroke-width="3" stroke-linejoin="round" points="46,3 51,0 46,-3" transform="matrix(-0.5555702330196023, 0.8314696123025451, -0.8314696123025451, -0.5555702330196023, 0, 0)" style="fill: rgb(240, 246, 252); stroke: rgb(240, 246, 252);"/>
        <polygon stroke-width="3" stroke-linejoin="round" points="46,3 51,0 46,-3" transform="matrix(-0.7071067811865475, 0.7071067811865476, -0.7071067811865476, -0.7071067811865475, 0, 0)" style="fill: rgb(240, 246, 252); stroke: rgb(240, 246, 252);"/>
        <polygon stroke-width="3" stroke-linejoin="round" points="46,3 51,0 46,-3" transform="matrix(-0.8314696123025453, 0.5555702330196022, -0.5555702330196022, -0.8314696123025453, 0, 0)" style="fill: rgb(240, 246, 252); stroke: rgb(240, 246, 252);"/>
        <polygon stroke-width="3" stroke-linejoin="round" points="46,3 51,0 46,-3" transform="matrix(-0.9238795325112867, 0.3826834323650899, -0.3826834323650899, -0.9238795325112867, 0, 0)" style="fill: rgb(240, 246, 252); stroke: rgb(240, 246, 252);"/>
        <polygon stroke-width="3" stroke-linejoin="round" points="46,3 51,0 46,-3" transform="matrix(-0.9807852804032304, 0.19509032201612816, -0.19509032201612816, -0.9807852804032304, 0, 0)" style="fill: rgb(240, 246, 252); stroke: rgb(240, 246, 252);"/>
        <polygon stroke-width="3" stroke-linejoin="round" points="46,3 51,0 46,-3" transform="matrix(-1, 1.2246467991473532e-16, -1.2246467991473532e-16, -1, 0, 0)" style="fill: rgb(240, 246, 252); stroke: rgb(240, 246, 252);"/>
        <polygon stroke-width="3" stroke-linejoin="round" points="46,3 51,0 46,-3" transform="matrix(-0.9807852804032304, -0.19509032201612836, 0.19509032201612836, -0.9807852804032304, 0, 0)" style="fill: rgb(240, 246, 252); stroke: rgb(240, 246, 252);"/>
        <polygon stroke-width="3" stroke-linejoin="round" points="46,3 51,0 46,-3" transform="matrix(-0.9238795325112868, -0.38268343236508967, 0.38268343236508967, -0.9238795325112868, 0, 0)" style="fill: rgb(240, 246, 252); stroke: rgb(240, 246, 252);"/>
        <polygon stroke-width="3" stroke-linejoin="round" points="46,3 51,0 46,-3" transform="matrix(-0.8314696123025452, -0.5555702330196023, 0.5555702330196023, -0.8314696123025452, 0, 0)" style="fill: rgb(240, 246, 252); stroke: rgb(240, 246, 252);"/>
      </g>
      <mask id="holes">
        <rect x="-60" y="-60" width="120" height="120" fill="white"/>
        <circle id="hole" cy="-40" r="3"/>
        <circle cy="-40" r="3" transform="matrix(0.30901699437494745, 0.9510565162951535, -0.9510565162951535, 0.30901699437494745, 0, 0)"/>
        <circle cy="-40" r="3" transform="matrix(-0.8090169943749473, 0.5877852522924732, -0.5877852522924732, -0.8090169943749473, 0, 0)"/>
        <circle cy="-40" r="3" transform="matrix(-0.8090169943749475, -0.587785252292473, 0.587785252292473, -0.8090169943749475, 0, 0)"/>
        <circle cy="-40" r="3" transform="matrix(0.30901699437494723, -0.9510565162951536, 0.9510565162951536, 0.30901699437494723, 0, 0)"/>
      </mask>
    </g>
    <g id="mounts" style="">
      <polygon stroke-width="6" stroke-linejoin="round" points="15.63 27.647 22.63 34.647 29.63 27.647" style="fill: rgb(240, 246, 252); stroke: rgb(240, 246, 252);" transform="matrix(-0.898793, 0.438373, -0.438373, -0.898793, 56.62369, 49.221332)"/>
      <polygon stroke-width="6" stroke-linejoin="round" points="-7,-42 0,-35 7,-42" style="fill: rgb(240, 246, 252); stroke: rgb(240, 246, 252);" transform="matrix(-0.8090169943749475, -0.587785252292473, 0.587785252292473, -0.8090169943749475, 0, 0)"/>
      <polygon stroke-width="6" stroke-linejoin="round" points="-43.616 -15.397 -36.616 -8.397 -29.616 -15.397" style="fill: rgb(240, 246, 252); stroke: rgb(240, 246, 252);" transform="matrix(0.139173, -0.990268, 0.990268, 0.139173, -19.738832, -46.50092)"/>
    </g>
  </g>
  <path d="M 169.158 41.123 L 169.158 45.715 L 167.758 45.715 L 167.758 58.315 L 169.158 58.315 L 169.158 62.907 L 158.574 62.907 L 158.574 58.315 L 159.918 58.315 L 159.918 48.515 L 155.158 62.907 L 151.014 62.907 L 146.114 48.655 L 146.114 58.315 L 147.458 58.315 L 147.458 62.907 L 138.274 62.907 L 138.274 58.315 L 139.674 58.315 L 139.674 45.715 L 138.274 45.715 L 138.274 41.123 L 151.098 41.123 L 154.01 49.859 L 156.81 41.123 L 169.158 41.123 Z M 237.926 58.315 L 237.926 56.019 L 243.498 56.019 L 243.498 62.907 L 224.99 62.907 L 224.99 58.875 L 233.614 45.715 L 230.702 45.715 L 230.702 48.011 L 225.13 48.011 L 225.13 41.123 L 243.05 41.123 L 243.05 45.155 L 234.454 58.315 L 237.926 58.315 Z M 222.974 58.315 L 224.206 58.315 L 224.206 62.907 L 215.358 62.907 L 215.358 58.315 L 216.534 58.315 L 216.534 53.723 C 216.534 53.356 216.488 53.047 216.395 52.796 C 216.339 52.638 216.254 52.491 216.142 52.365 C 215.99 52.199 215.794 52.077 215.577 52.014 C 215.443 51.973 215.295 51.947 215.133 51.936 C 215.078 51.933 215.022 51.931 214.966 51.931 C 214.738 51.928 214.511 51.959 214.291 52.023 C 213.799 52.177 213.488 52.523 213.357 53.062 C 213.308 53.279 213.284 53.501 213.286 53.723 L 213.286 58.315 L 214.462 58.315 L 214.462 62.907 L 205.614 62.907 L 205.614 58.315 L 206.846 58.315 L 206.846 51.931 L 205.614 51.931 L 205.614 47.339 L 213.286 47.339 L 213.286 49.523 C 214.63 47.806 216.31 46.947 218.326 46.947 C 218.787 46.943 219.247 46.993 219.696 47.096 C 220.531 47.277 221.278 47.738 221.812 48.403 C 222.466 49.222 222.844 50.3 222.946 51.637 C 222.966 51.893 222.975 52.15 222.974 52.407 L 222.974 58.315 Z M 297.146 58.315 L 298.378 58.315 L 298.378 62.907 L 289.53 62.907 L 289.53 58.315 L 290.706 58.315 L 290.706 53.723 C 290.706 53.356 290.66 53.047 290.567 52.796 C 290.511 52.638 290.426 52.491 290.314 52.365 C 290.162 52.199 289.966 52.077 289.749 52.014 C 289.615 51.973 289.467 51.947 289.305 51.936 C 289.25 51.933 289.194 51.931 289.138 51.931 C 288.91 51.928 288.683 51.959 288.463 52.023 C 287.971 52.177 287.66 52.523 287.529 53.062 C 287.48 53.279 287.456 53.501 287.458 53.723 L 287.458 58.315 L 288.634 58.315 L 288.634 62.907 L 279.786 62.907 L 279.786 58.315 L 281.018 58.315 L 281.018 51.931 L 279.786 51.931 L 279.786 47.339 L 287.458 47.339 L 287.458 49.523 C 288.802 47.806 290.482 46.947 292.498 46.947 C 292.959 46.943 293.419 46.993 293.868 47.096 C 294.703 47.277 295.45 47.738 295.984 48.403 C 296.638 49.222 297.016 50.3 297.118 51.637 C 297.138 51.893 297.147 52.15 297.146 52.407 L 297.146 58.315 Z M 176.051 63.055 C 176.879 63.223 177.722 63.305 178.566 63.299 C 179.684 63.299 180.7 63.175 181.612 62.928 C 182.794 62.626 183.883 62.037 184.782 61.213 C 185.136 60.884 185.451 60.515 185.72 60.114 C 186.219 59.371 186.575 58.506 186.787 57.518 C 186.95 56.73 187.029 55.927 187.022 55.123 C 187.022 54.987 187.02 54.85 187.016 54.714 C 186.99 53.835 186.877 53.028 186.678 52.293 C 186.368 51.063 185.721 49.944 184.81 49.061 C 184.453 48.72 184.059 48.419 183.636 48.163 C 182.875 47.703 182.002 47.374 181.016 47.175 C 180.209 47.018 179.389 46.942 178.566 46.947 C 177.448 46.947 176.433 47.071 175.52 47.318 C 174.339 47.62 173.25 48.209 172.35 49.033 C 171.997 49.362 171.682 49.731 171.412 50.132 C 170.914 50.875 170.558 51.74 170.345 52.728 C 170.183 53.516 170.104 54.319 170.11 55.123 C 170.11 55.323 170.115 55.523 170.123 55.723 C 170.161 56.572 170.28 57.352 170.481 58.063 C 170.799 59.267 171.446 60.358 172.35 61.213 C 172.643 61.485 172.958 61.731 173.292 61.949 C 174.088 62.466 175.007 62.835 176.051 63.055 Z M 193.747 63.055 C 194.575 63.223 195.418 63.305 196.262 63.299 C 197.38 63.299 198.396 63.175 199.308 62.928 C 200.49 62.626 201.579 62.037 202.478 61.213 C 202.832 60.884 203.147 60.515 203.416 60.114 C 203.915 59.371 204.271 58.506 204.483 57.518 C 204.646 56.73 204.725 55.927 204.718 55.123 C 204.718 54.987 204.716 54.85 204.712 54.714 C 204.686 53.835 204.573 53.028 204.374 52.293 C 204.064 51.063 203.417 49.944 202.506 49.061 C 202.149 48.72 201.755 48.419 201.332 48.163 C 200.571 47.703 199.698 47.374 198.712 47.175 C 197.905 47.018 197.085 46.942 196.262 46.947 C 195.144 46.947 194.129 47.071 193.216 47.318 C 192.035 47.62 190.946 48.209 190.046 49.033 C 189.693 49.362 189.378 49.731 189.108 50.132 C 188.61 50.875 188.254 51.74 188.041 52.728 C 187.879 53.516 187.8 54.319 187.806 55.123 C 187.806 55.323 187.811 55.523 187.819 55.723 C 187.857 56.572 187.976 57.352 188.177 58.063 C 188.495 59.267 189.142 60.358 190.046 61.213 C 190.339 61.485 190.654 61.731 190.988 61.949 C 191.784 62.466 192.703 62.835 193.747 63.055 Z M 250.223 63.055 C 251.051 63.223 251.894 63.305 252.738 63.299 C 253.856 63.299 254.872 63.175 255.784 62.928 C 256.966 62.626 258.055 62.037 258.954 61.213 C 259.308 60.884 259.623 60.515 259.892 60.114 C 260.391 59.371 260.747 58.506 260.959 57.518 C 261.122 56.73 261.201 55.927 261.194 55.123 C 261.194 54.987 261.192 54.85 261.188 54.714 C 261.162 53.835 261.049 53.028 260.85 52.293 C 260.54 51.063 259.893 49.944 258.982 49.061 C 258.625 48.72 258.231 48.419 257.808 48.163 C 257.047 47.703 256.174 47.374 255.188 47.175 C 254.381 47.018 253.561 46.942 252.738 46.947 C 251.62 46.947 250.605 47.071 249.692 47.318 C 248.511 47.62 247.422 48.209 246.522 49.033 C 246.169 49.362 245.854 49.731 245.584 50.132 C 245.086 50.875 244.73 51.74 244.517 52.728 C 244.355 53.516 244.276 54.319 244.282 55.123 C 244.282 55.323 244.287 55.523 244.295 55.723 C 244.333 56.572 244.452 57.352 244.653 58.063 C 244.971 59.267 245.618 60.358 246.522 61.213 C 246.815 61.485 247.13 61.731 247.464 61.949 C 248.26 62.466 249.179 62.835 250.223 63.055 Z M 267.919 63.055 C 268.747 63.223 269.59 63.305 270.434 63.299 C 271.552 63.299 272.568 63.175 273.48 62.928 C 274.662 62.626 275.751 62.037 276.65 61.213 C 277.004 60.884 277.319 60.515 277.588 60.114 C 278.087 59.371 278.443 58.506 278.655 57.518 C 278.818 56.73 278.897 55.927 278.89 55.123 C 278.89 54.987 278.888 54.85 278.884 54.714 C 278.858 53.835 278.745 53.028 278.546 52.293 C 278.236 51.063 277.589 49.944 276.678 49.061 C 276.321 48.72 275.927 48.419 275.504 48.163 C 274.743 47.703 273.87 47.374 272.884 47.175 C 272.077 47.018 271.257 46.942 270.434 46.947 C 269.316 46.947 268.301 47.071 267.388 47.318 C 266.207 47.62 265.118 48.209 264.218 49.033 C 263.865 49.362 263.55 49.731 263.28 50.132 C 262.782 50.875 262.426 51.74 262.213 52.728 C 262.051 53.516 261.972 54.319 261.978 55.123 C 261.978 55.323 261.983 55.523 261.991 55.723 C 262.029 56.572 262.148 57.352 262.349 58.063 C 262.667 59.267 263.314 60.358 264.218 61.213 C 264.511 61.485 264.826 61.731 265.16 61.949 C 265.956 62.466 266.875 62.835 267.919 63.055 Z M 180.19 56.523 L 180.19 53.723 C 180.19 53.346 180.14 53.031 180.038 52.777 C 179.98 52.625 179.894 52.485 179.784 52.365 C 179.63 52.204 179.437 52.086 179.223 52.022 C 179.087 51.978 178.935 51.95 178.768 51.938 C 178.701 51.933 178.634 51.931 178.566 51.931 C 178.41 51.93 178.253 51.944 178.099 51.973 C 177.785 52.035 177.535 52.166 177.348 52.365 C 177.229 52.496 177.137 52.65 177.078 52.818 C 176.988 53.065 176.942 53.367 176.942 53.723 L 176.942 56.523 C 176.942 56.9 176.993 57.215 177.094 57.469 C 177.152 57.621 177.239 57.761 177.348 57.881 C 177.502 58.042 177.696 58.161 177.909 58.224 C 178.046 58.268 178.198 58.296 178.364 58.308 C 178.432 58.313 178.499 58.315 178.566 58.315 C 178.723 58.316 178.88 58.302 179.033 58.273 C 179.347 58.211 179.598 58.08 179.784 57.881 C 179.904 57.75 179.996 57.596 180.054 57.428 C 180.145 57.181 180.19 56.879 180.19 56.523 Z M 197.886 56.523 L 197.886 53.723 C 197.886 53.346 197.836 53.031 197.734 52.777 C 197.676 52.625 197.59 52.485 197.48 52.365 C 197.326 52.204 197.133 52.086 196.919 52.022 C 196.783 51.978 196.631 51.95 196.464 51.938 C 196.397 51.933 196.33 51.931 196.262 51.931 C 196.106 51.93 195.949 51.944 195.795 51.973 C 195.481 52.035 195.231 52.166 195.044 52.365 C 194.925 52.496 194.833 52.65 194.774 52.818 C 194.684 53.065 194.638 53.367 194.638 53.723 L 194.638 56.523 C 194.638 56.9 194.689 57.215 194.79 57.469 C 194.848 57.621 194.935 57.761 195.044 57.881 C 195.198 58.042 195.392 58.161 195.605 58.224 C 195.742 58.268 195.894 58.296 196.06 58.308 C 196.128 58.313 196.195 58.315 196.262 58.315 C 196.419 58.316 196.576 58.302 196.729 58.273 C 197.043 58.211 197.294 58.08 197.48 57.881 C 197.6 57.75 197.692 57.596 197.75 57.428 C 197.841 57.181 197.886 56.879 197.886 56.523 Z M 254.362 56.523 L 254.362 53.723 C 254.362 53.346 254.312 53.031 254.21 52.777 C 254.152 52.625 254.066 52.485 253.956 52.365 C 253.802 52.204 253.609 52.086 253.395 52.022 C 253.259 51.978 253.107 51.95 252.94 51.938 C 252.873 51.933 252.806 51.931 252.738 51.931 C 252.582 51.93 252.425 51.944 252.271 51.973 C 251.957 52.035 251.707 52.166 251.52 52.365 C 251.401 52.496 251.309 52.65 251.25 52.818 C 251.16 53.065 251.114 53.367 251.114 53.723 L 251.114 56.523 C 251.114 56.9 251.165 57.215 251.266 57.469 C 251.324 57.621 251.411 57.761 251.52 57.881 C 251.674 58.042 251.868 58.161 252.081 58.224 C 252.218 58.268 252.37 58.296 252.536 58.308 C 252.604 58.313 252.671 58.315 252.738 58.315 C 252.895 58.316 253.052 58.302 253.205 58.273 C 253.519 58.211 253.77 58.08 253.956 57.881 C 254.076 57.75 254.168 57.596 254.226 57.428 C 254.317 57.181 254.362 56.879 254.362 56.523 Z M 272.058 56.523 L 272.058 53.723 C 272.058 53.346 272.008 53.031 271.906 52.777 C 271.848 52.625 271.762 52.485 271.652 52.365 C 271.498 52.204 271.305 52.086 271.091 52.022 C 270.955 51.978 270.803 51.95 270.636 51.938 C 270.569 51.933 270.502 51.931 270.434 51.931 C 270.278 51.93 270.121 51.944 269.967 51.973 C 269.653 52.035 269.403 52.166 269.216 52.365 C 269.097 52.496 269.005 52.65 268.946 52.818 C 268.856 53.065 268.81 53.367 268.81 53.723 L 268.81 56.523 C 268.81 56.9 268.861 57.215 268.962 57.469 C 269.02 57.621 269.107 57.761 269.216 57.881 C 269.37 58.042 269.564 58.161 269.777 58.224 C 269.914 58.268 270.066 58.296 270.232 58.308 C 270.3 58.313 270.367 58.315 270.434 58.315 C 270.591 58.316 270.748 58.302 270.901 58.273 C 271.215 58.211 271.466 58.08 271.652 57.881 C 271.772 57.75 271.864 57.596 271.922 57.428 C 272.013 57.181 272.058 56.879 272.058 56.523 Z" vector-effect="non-scaling-stroke" stroke-linecap="round" fill-rule="evenodd" font-size="9pt" stroke-width="0mm" style="stroke-width: 0mm; fill: rgb(240, 246, 252); stroke: rgb(240, 246, 252);"/>
  <path d="M 77.014 69.188 L 78.83 64.006 L 96.461 64.006 L 91.012 79.549 L 32.45 79.549 L 35.64 70.451 L 73.337 40.756 L 64.124 40.756 L 62.307 45.936 L 44.676 45.936 L 50.125 30.394 L 106.827 30.394 L 103.637 39.492 L 66.028 69.188 L 77.014 69.188 Z" vector-effect="non-scaling-stroke" stroke-linecap="round" fill-rule="evenodd" font-size="9pt" stroke-width="0mm" style="stroke-width: 0mm; fill: rgb(240, 246, 252); stroke: rgb(240, 246, 252);"/>
  <g id="svgGroup" stroke-linecap="round" fill-rule="evenodd" font-size="9pt" stroke="#000" stroke-width="0.0mm" fill="#000" style="stroke: rgb(0, 0, 0); stroke-width: 0mm; fill: rgb(0, 0, 0);" transform="matrix(0.612883, 0, 0, 0.612883, 132.271822, 69.825585)">
    <path d="M 212.74 12.28 L 213.62 12.28 L 213.62 15.56 L 207.3 15.56 L 207.3 12.28 L 208.14 12.28 L 208.14 9 A 2.481 2.481 0 0 0 208.118 8.657 Q 208.093 8.48 208.041 8.338 A 0.938 0.938 0 0 0 207.86 8.03 A 0.883 0.883 0 0 0 207.456 7.779 Q 207.313 7.735 207.139 7.724 A 1.865 1.865 0 0 0 207.02 7.72 A 1.617 1.617 0 0 0 206.538 7.786 Q 206.011 7.951 205.871 8.528 A 2.009 2.009 0 0 0 205.82 9 L 205.82 12.28 L 206.66 12.28 L 206.66 15.56 L 200.38 15.56 L 200.38 12.28 L 201.22 12.28 L 201.22 9 A 2.481 2.481 0 0 0 201.198 8.657 Q 201.173 8.48 201.121 8.338 A 0.938 0.938 0 0 0 200.94 8.03 A 0.883 0.883 0 0 0 200.536 7.779 Q 200.393 7.735 200.219 7.724 A 1.865 1.865 0 0 0 200.1 7.72 A 1.617 1.617 0 0 0 199.618 7.786 Q 199.091 7.951 198.951 8.528 A 2.009 2.009 0 0 0 198.9 9 L 198.9 12.28 L 199.74 12.28 L 199.74 15.56 L 193.42 15.56 L 193.42 12.28 L 194.3 12.28 L 194.3 7.72 L 193.42 7.72 L 193.42 4.44 L 198.9 4.44 L 198.9 6 A 5.142 5.142 0 0 1 200.135 4.843 A 4.238 4.238 0 0 1 202.5 4.16 A 4.274 4.274 0 0 1 203.352 4.24 Q 204.009 4.374 204.49 4.73 A 2.899 2.899 0 0 1 205.405 5.878 A 3.78 3.78 0 0 1 205.58 6.34 A 6.132 6.132 0 0 1 206.378 5.395 A 4.853 4.853 0 0 1 207.23 4.74 A 3.874 3.874 0 0 1 208.665 4.235 A 5.047 5.047 0 0 1 209.42 4.18 A 4.208 4.208 0 0 1 210.398 4.287 A 2.661 2.661 0 0 1 211.91 5.22 Q 212.61 6.098 212.72 7.53 A 7.222 7.222 0 0 1 212.74 8.08 L 212.74 12.28 Z M 234.06 15.56 L 229.46 15.56 L 226.82 7.72 L 225.98 7.72 L 225.98 4.44 L 232.16 4.44 L 232.16 7.72 L 231.32 7.72 L 232.04 10.84 L 232.24 10.84 L 233.7 4.44 L 237.38 4.44 L 238.84 10.84 L 239.04 10.84 L 239.74 7.72 L 238.9 7.72 L 238.9 4.44 L 244.7 4.44 L 244.7 7.72 L 243.86 7.72 L 241.32 15.56 L 236.46 15.56 L 235.36 10 L 235.16 10 L 234.06 15.56 Z M 0 15.56 L 0 12.28 L 1 12.28 L 1 3.28 L 0 3.28 L 0 0 L 9.18 0 A 10.062 10.062 0 0 1 10.665 0.102 Q 11.424 0.216 12.037 0.455 A 4.276 4.276 0 0 1 13.12 1.06 A 3.289 3.289 0 0 1 14.22 2.67 Q 14.406 3.234 14.459 3.927 A 7.511 7.511 0 0 1 14.48 4.5 A 5.597 5.597 0 0 1 14.369 5.641 A 4.199 4.199 0 0 1 13.94 6.82 Q 13.4 7.8 12.4 8.18 L 12.42 8.38 A 2.722 2.722 0 0 1 13.299 8.661 Q 14.063 9.074 14.267 10.002 A 3.457 3.457 0 0 1 14.34 10.74 L 14.34 12.28 L 15.28 12.28 L 15.28 15.56 L 8.94 15.56 L 8.94 10.86 A 4.286 4.286 0 0 0 8.922 10.451 Q 8.88 10.015 8.741 9.738 A 1.151 1.151 0 0 0 8.71 9.68 Q 8.48 9.28 7.99 9.14 A 2.881 2.881 0 0 0 7.644 9.066 Q 7.279 9.009 6.77 9.001 A 10.825 10.825 0 0 0 6.6 9 L 6.6 12.28 L 7.92 12.28 L 7.92 15.56 L 0 15.56 Z M 148.52 9.62 L 150.44 12.28 L 151.3 12.28 L 151.3 15.56 L 146.4 15.56 L 144.34 11.72 L 143.86 11.72 L 143.86 15.56 L 138.38 15.56 L 138.38 12.28 L 139.26 12.28 L 139.26 3.28 L 138.38 3.28 L 138.38 0 L 143.86 0 L 143.86 8.12 L 144.34 8.12 L 146.82 4.44 L 151.04 4.44 L 151.04 7.72 L 150.22 7.72 L 148.52 9.62 Z M 278.58 9.62 L 280.5 12.28 L 281.36 12.28 L 281.36 15.56 L 276.46 15.56 L 274.4 11.72 L 273.92 11.72 L 273.92 15.56 L 268.44 15.56 L 268.44 12.28 L 269.32 12.28 L 269.32 3.28 L 268.44 3.28 L 268.44 0 L 273.92 0 L 273.92 8.12 L 274.4 8.12 L 276.88 4.44 L 281.1 4.44 L 281.1 7.72 L 280.28 7.72 L 278.58 9.62 Z M 64.34 15.56 L 55.12 15.56 L 55.12 12.28 L 56.12 12.28 L 56.12 3.28 L 55.12 3.28 L 55.12 0 L 67.08 0 L 67.08 5.18 L 63.54 5.18 L 63.54 3.28 L 61.72 3.28 L 61.72 6.6 L 64.74 6.6 L 64.74 8.88 L 61.72 8.88 L 61.72 12.28 L 64.34 12.28 L 64.34 15.56 Z M 167.2 15.56 L 157.98 15.56 L 157.98 12.28 L 158.98 12.28 L 158.98 3.28 L 157.98 3.28 L 157.98 0 L 169.94 0 L 169.94 5.18 L 166.4 5.18 L 166.4 3.28 L 164.58 3.28 L 164.58 6.6 L 167.6 6.6 L 167.6 8.88 L 164.58 8.88 L 164.58 12.28 L 167.2 12.28 L 167.2 15.56 Z M 28.24 12.28 L 29.12 12.28 L 29.12 15.56 L 23.64 15.56 L 23.64 14 A 5.142 5.142 0 0 1 22.405 15.157 A 4.238 4.238 0 0 1 20.04 15.84 A 4.208 4.208 0 0 1 19.062 15.733 A 2.661 2.661 0 0 1 17.55 14.8 Q 16.85 13.923 16.74 12.49 A 7.222 7.222 0 0 1 16.72 11.94 L 16.72 7.72 L 15.84 7.72 L 15.84 4.44 L 21.32 4.44 L 21.32 11 A 2.381 2.381 0 0 0 21.344 11.352 Q 21.404 11.75 21.61 11.97 A 0.914 0.914 0 0 0 22.01 12.215 Q 22.157 12.262 22.336 12.275 A 1.972 1.972 0 0 0 22.48 12.28 A 1.724 1.724 0 0 0 22.813 12.25 Q 23.003 12.213 23.149 12.129 A 0.859 0.859 0 0 0 23.35 11.97 Q 23.564 11.741 23.62 11.322 A 2.434 2.434 0 0 0 23.64 11 L 23.64 7.72 L 22.56 7.72 L 22.56 4.44 L 28.24 4.44 L 28.24 12.28 Z M 80 12.28 L 80.88 12.28 L 80.88 15.56 L 75.4 15.56 L 75.4 14 A 5.142 5.142 0 0 1 74.165 15.157 A 4.238 4.238 0 0 1 71.8 15.84 A 4.208 4.208 0 0 1 70.822 15.733 A 2.661 2.661 0 0 1 69.31 14.8 Q 68.61 13.923 68.5 12.49 A 7.222 7.222 0 0 1 68.48 11.94 L 68.48 7.72 L 67.6 7.72 L 67.6 4.44 L 73.08 4.44 L 73.08 11 A 2.381 2.381 0 0 0 73.104 11.352 Q 73.164 11.75 73.37 11.97 A 0.914 0.914 0 0 0 73.77 12.215 Q 73.917 12.262 74.096 12.275 A 1.972 1.972 0 0 0 74.24 12.28 A 1.724 1.724 0 0 0 74.573 12.25 Q 74.763 12.213 74.909 12.129 A 0.859 0.859 0 0 0 75.11 11.97 Q 75.324 11.741 75.38 11.322 A 2.434 2.434 0 0 0 75.4 11 L 75.4 7.72 L 74.32 7.72 L 74.32 4.44 L 80 4.44 L 80 12.28 Z M 29.68 15.04 L 29.68 12.08 L 32.92 12.08 L 32.92 12.28 A 1.063 1.063 0 0 0 33 12.709 Q 33.199 13.165 33.895 13.229 A 2.641 2.641 0 0 0 34.14 13.24 Q 35.22 13.24 35.22 12.5 A 0.814 0.814 0 0 0 35.182 12.244 A 0.64 0.64 0 0 0 34.91 11.9 A 1.329 1.329 0 0 0 34.7 11.793 Q 34.47 11.697 34.111 11.618 A 7.421 7.421 0 0 0 33.82 11.56 L 32.82 11.38 A 5.099 5.099 0 0 1 31.455 10.952 Q 29.68 10.076 29.68 7.82 A 3.66 3.66 0 0 1 29.873 6.602 A 3.059 3.059 0 0 1 31 5.12 Q 32.107 4.315 33.862 4.185 A 9.468 9.468 0 0 1 34.56 4.16 Q 36.708 4.16 38.279 4.78 A 6.947 6.947 0 0 1 38.78 5 L 38.78 7.78 L 35.74 7.78 L 35.74 7.58 A 0.943 0.943 0 0 0 35.708 7.328 A 0.667 0.667 0 0 0 35.47 6.97 A 0.878 0.878 0 0 0 35.201 6.831 Q 35.078 6.791 34.929 6.774 A 2.14 2.14 0 0 0 34.68 6.76 Q 33.986 6.76 33.774 7.068 A 0.57 0.57 0 0 0 33.68 7.4 A 0.653 0.653 0 0 0 33.722 7.64 Q 33.789 7.81 33.96 7.92 A 1.281 1.281 0 0 0 34.141 8.014 Q 34.437 8.143 34.98 8.26 L 36.12 8.48 Q 37.235 8.693 37.95 9.134 A 2.848 2.848 0 0 1 38.66 9.74 A 3.245 3.245 0 0 1 39.334 11.191 A 4.591 4.591 0 0 1 39.42 12.1 A 4.146 4.146 0 0 1 39.263 13.274 A 3.042 3.042 0 0 1 38.15 14.88 A 4.254 4.254 0 0 1 36.834 15.536 Q 35.856 15.84 34.54 15.84 Q 32.02 15.84 29.68 15.04 Z M 95.44 15.04 L 95.44 12.08 L 98.68 12.08 L 98.68 12.28 A 1.063 1.063 0 0 0 98.76 12.709 Q 98.959 13.165 99.655 13.229 A 2.641 2.641 0 0 0 99.9 13.24 Q 100.98 13.24 100.98 12.5 A 0.814 0.814 0 0 0 100.942 12.244 A 0.64 0.64 0 0 0 100.67 11.9 A 1.329 1.329 0 0 0 100.46 11.793 Q 100.23 11.697 99.871 11.618 A 7.421 7.421 0 0 0 99.58 11.56 L 98.58 11.38 A 5.099 5.099 0 0 1 97.215 10.952 Q 95.44 10.076 95.44 7.82 A 3.66 3.66 0 0 1 95.633 6.602 A 3.059 3.059 0 0 1 96.76 5.12 Q 97.867 4.315 99.622 4.185 A 9.468 9.468 0 0 1 100.32 4.16 Q 102.468 4.16 104.039 4.78 A 6.947 6.947 0 0 1 104.54 5 L 104.54 7.78 L 101.5 7.78 L 101.5 7.58 A 0.943 0.943 0 0 0 101.468 7.328 A 0.667 0.667 0 0 0 101.23 6.97 A 0.878 0.878 0 0 0 100.961 6.831 Q 100.838 6.791 100.689 6.774 A 2.14 2.14 0 0 0 100.44 6.76 Q 99.746 6.76 99.534 7.068 A 0.57 0.57 0 0 0 99.44 7.4 A 0.653 0.653 0 0 0 99.482 7.64 Q 99.549 7.81 99.72 7.92 A 1.281 1.281 0 0 0 99.901 8.014 Q 100.197 8.143 100.74 8.26 L 101.88 8.48 Q 102.995 8.693 103.71 9.134 A 2.848 2.848 0 0 1 104.42 9.74 A 3.245 3.245 0 0 1 105.094 11.191 A 4.591 4.591 0 0 1 105.18 12.1 A 4.146 4.146 0 0 1 105.023 13.274 A 3.042 3.042 0 0 1 103.91 14.88 A 4.254 4.254 0 0 1 102.594 15.536 Q 101.616 15.84 100.3 15.84 Q 97.78 15.84 95.44 15.04 Z M 125.62 12.28 L 126.5 12.28 L 126.5 15.56 L 121.22 15.56 L 121.22 14.2 A 3.702 3.702 0 0 1 120.594 14.893 A 4.952 4.952 0 0 1 119.99 15.34 A 3.134 3.134 0 0 1 118.928 15.758 A 4.351 4.351 0 0 1 118.06 15.84 Q 116.806 15.84 115.999 15.281 A 2.682 2.682 0 0 1 115.7 15.04 A 2.603 2.603 0 0 1 114.942 13.706 A 3.968 3.968 0 0 1 114.84 12.78 A 3.191 3.191 0 0 1 116.76 9.746 Q 118.186 9.029 120.671 8.918 A 20.33 20.33 0 0 1 121.26 8.9 A 1.673 1.673 0 0 0 121.192 8.543 Q 121.122 8.321 120.988 8.168 A 0.89 0.89 0 0 0 120.74 7.97 Q 120.369 7.769 119.583 7.73 A 8.13 8.13 0 0 0 119.18 7.72 Q 118.28 7.72 117.25 7.91 A 12.191 12.191 0 0 0 116.043 8.194 A 9.999 9.999 0 0 0 115.36 8.42 L 115.36 4.74 Q 116.42 4.48 117.66 4.32 Q 118.9 4.16 120.08 4.16 A 13.026 13.026 0 0 1 121.543 4.236 Q 123.055 4.408 123.96 4.966 A 3.17 3.17 0 0 1 124.34 5.24 A 3.383 3.383 0 0 1 125.384 6.856 Q 125.561 7.421 125.605 8.108 A 7.339 7.339 0 0 1 125.62 8.58 L 125.62 12.28 Z M 191.9 12.28 L 192.78 12.28 L 192.78 15.56 L 187.5 15.56 L 187.5 14.2 A 3.702 3.702 0 0 1 186.874 14.893 A 4.952 4.952 0 0 1 186.27 15.34 A 3.134 3.134 0 0 1 185.208 15.758 A 4.351 4.351 0 0 1 184.34 15.84 Q 183.086 15.84 182.279 15.281 A 2.682 2.682 0 0 1 181.98 15.04 A 2.603 2.603 0 0 1 181.222 13.706 A 3.968 3.968 0 0 1 181.12 12.78 A 3.191 3.191 0 0 1 183.04 9.746 Q 184.466 9.029 186.951 8.918 A 20.33 20.33 0 0 1 187.54 8.9 A 1.673 1.673 0 0 0 187.472 8.543 Q 187.402 8.321 187.268 8.168 A 0.89 0.89 0 0 0 187.02 7.97 Q 186.649 7.769 185.863 7.73 A 8.13 8.13 0 0 0 185.46 7.72 Q 184.56 7.72 183.53 7.91 A 12.191 12.191 0 0 0 182.323 8.194 A 9.999 9.999 0 0 0 181.64 8.42 L 181.64 4.74 Q 182.7 4.48 183.94 4.32 Q 185.18 4.16 186.36 4.16 A 13.026 13.026 0 0 1 187.823 4.236 Q 189.335 4.408 190.24 4.966 A 3.17 3.17 0 0 1 190.62 5.24 A 3.383 3.383 0 0 1 191.664 6.856 Q 191.841 7.421 191.885 8.108 A 7.339 7.339 0 0 1 191.9 8.58 L 191.9 12.28 Z M 137.7 5.4 L 137.7 9.36 L 134.26 9.36 L 134.26 9 A 2.481 2.481 0 0 0 134.238 8.657 Q 134.213 8.48 134.161 8.338 A 0.938 0.938 0 0 0 133.98 8.03 Q 133.75 7.776 133.305 7.73 A 2.012 2.012 0 0 0 133.1 7.72 Q 131.94 7.72 131.94 9 L 131.94 10.72 Q 131.94 12.28 133.72 12.28 A 18.788 18.788 0 0 0 135.246 12.214 Q 136.047 12.148 136.945 12.018 A 34.952 34.952 0 0 0 137.58 11.92 L 137.58 15.06 Q 136.966 15.331 135.903 15.553 A 17.981 17.981 0 0 1 135.67 15.6 Q 134.44 15.84 133.12 15.84 A 8.825 8.825 0 0 1 131.322 15.668 Q 129.716 15.334 128.66 14.35 A 4.775 4.775 0 0 1 127.325 12.1 Q 127.06 11.163 127.06 10 A 8.151 8.151 0 0 1 127.228 8.29 Q 127.579 6.657 128.66 5.65 Q 130.26 4.16 133.1 4.16 Q 134.48 4.16 135.74 4.54 A 11.178 11.178 0 0 1 136.473 4.787 Q 136.846 4.929 137.153 5.082 A 4.609 4.609 0 0 1 137.7 5.4 Z M 225.54 9.28 L 225.54 10.72 L 219.06 10.72 L 219.06 10.84 Q 219.06 11.58 219.5 11.93 Q 219.897 12.246 220.765 12.277 A 5.463 5.463 0 0 0 220.96 12.28 A 14.856 14.856 0 0 0 222.723 12.179 A 13.006 13.006 0 0 0 223.28 12.1 Q 224.38 11.92 225.2 11.64 L 225.2 14.84 A 4.636 4.636 0 0 1 224.699 15.071 Q 224.165 15.282 223.405 15.47 A 16.819 16.819 0 0 1 223.15 15.53 A 12.221 12.221 0 0 1 221.279 15.804 A 14.956 14.956 0 0 1 220.22 15.84 Q 217.38 15.84 215.78 14.35 A 4.775 4.775 0 0 1 214.445 12.1 Q 214.18 11.163 214.18 10 A 8.151 8.151 0 0 1 214.348 8.29 Q 214.699 6.657 215.78 5.65 Q 217.38 4.16 220.22 4.16 A 8.555 8.555 0 0 1 221.682 4.276 Q 223.392 4.574 224.29 5.63 A 5.205 5.205 0 0 1 225.488 8.424 A 6.916 6.916 0 0 1 225.54 9.28 Z M 180.48 4.44 L 180.48 8.26 A 4.534 4.534 0 0 0 178.779 7.92 A 5.167 5.167 0 0 0 178.72 7.92 A 3.855 3.855 0 0 0 177.956 7.991 Q 177.237 8.137 176.78 8.58 A 2.087 2.087 0 0 0 176.249 9.462 Q 176.143 9.797 176.112 10.204 A 4.505 4.505 0 0 0 176.1 10.54 L 176.1 12.28 L 177.9 12.28 L 177.9 15.56 L 170.62 15.56 L 170.62 12.28 L 171.5 12.28 L 171.5 7.72 L 170.62 7.72 L 170.62 4.44 L 176.1 4.44 L 176.1 5.9 A 4.964 4.964 0 0 1 176.68 5.178 A 3.796 3.796 0 0 1 177.38 4.61 A 2.899 2.899 0 0 1 178.397 4.223 A 3.951 3.951 0 0 1 179.12 4.16 A 3.59 3.59 0 0 1 179.721 4.209 A 3.199 3.199 0 0 1 179.88 4.24 Q 180.24 4.32 180.48 4.44 Z M 267.8 4.44 L 267.8 8.26 A 4.534 4.534 0 0 0 266.099 7.92 A 5.167 5.167 0 0 0 266.04 7.92 A 3.855 3.855 0 0 0 265.276 7.991 Q 264.557 8.137 264.1 8.58 A 2.087 2.087 0 0 0 263.569 9.462 Q 263.463 9.797 263.432 10.204 A 4.505 4.505 0 0 0 263.42 10.54 L 263.42 12.28 L 265.22 12.28 L 265.22 15.56 L 257.94 15.56 L 257.94 12.28 L 258.82 12.28 L 258.82 7.72 L 257.94 7.72 L 257.94 4.44 L 263.42 4.44 L 263.42 5.9 A 4.964 4.964 0 0 1 264 5.178 A 3.796 3.796 0 0 1 264.7 4.61 A 2.899 2.899 0 0 1 265.717 4.223 A 3.951 3.951 0 0 1 266.44 4.16 A 3.59 3.59 0 0 1 267.041 4.209 A 3.199 3.199 0 0 1 267.2 4.24 Q 267.56 4.32 267.8 4.44 Z M 40.74 11.34 L 40.74 7.72 L 39.86 7.72 L 39.86 4.44 Q 40.62 4.44 41 4.05 Q 41.376 3.665 41.38 2.995 A 2.419 2.419 0 0 0 41.38 2.98 L 41.38 2.08 L 45.62 2.08 L 45.62 4.44 L 48.32 4.44 L 48.32 7.72 L 45.62 7.72 L 45.62 11 A 2.381 2.381 0 0 0 45.644 11.352 Q 45.704 11.75 45.91 11.97 A 0.914 0.914 0 0 0 46.31 12.215 Q 46.457 12.262 46.636 12.275 A 1.972 1.972 0 0 0 46.78 12.28 A 7.448 7.448 0 0 0 47.627 12.229 A 9.897 9.897 0 0 0 48.44 12.1 L 48.44 15.24 A 5.525 5.525 0 0 1 48.052 15.375 Q 47.598 15.515 46.972 15.642 A 17.463 17.463 0 0 1 46.93 15.65 Q 45.98 15.84 45 15.84 A 6.966 6.966 0 0 1 43.806 15.745 Q 42.554 15.526 41.81 14.81 Q 40.78 13.818 40.741 11.519 A 10.774 10.774 0 0 1 40.74 11.34 Z M 106.5 11.34 L 106.5 7.72 L 105.62 7.72 L 105.62 4.44 Q 106.38 4.44 106.76 4.05 Q 107.136 3.665 107.14 2.995 A 2.419 2.419 0 0 0 107.14 2.98 L 107.14 2.08 L 111.38 2.08 L 111.38 4.44 L 114.08 4.44 L 114.08 7.72 L 111.38 7.72 L 111.38 11 A 2.381 2.381 0 0 0 111.404 11.352 Q 111.464 11.75 111.67 11.97 A 0.914 0.914 0 0 0 112.07 12.215 Q 112.217 12.262 112.396 12.275 A 1.972 1.972 0 0 0 112.54 12.28 A 7.448 7.448 0 0 0 113.387 12.229 A 9.897 9.897 0 0 0 114.2 12.1 L 114.2 15.24 A 5.525 5.525 0 0 1 113.812 15.375 Q 113.358 15.515 112.732 15.642 A 17.463 17.463 0 0 1 112.69 15.65 Q 111.74 15.84 110.76 15.84 A 6.966 6.966 0 0 1 109.566 15.745 Q 108.314 15.526 107.57 14.81 Q 106.54 13.818 106.501 11.519 A 10.774 10.774 0 0 1 106.5 11.34 Z M 87.8 15.58 L 81.44 15.58 L 81.44 12.28 L 82.32 12.28 L 82.32 3.28 L 81.44 3.28 L 81.44 0 L 86.92 0 L 86.92 12.28 L 87.8 12.28 L 87.8 15.58 Z M 94.8 15.58 L 88.44 15.58 L 88.44 12.28 L 89.32 12.28 L 89.32 3.28 L 88.44 3.28 L 88.44 0 L 93.92 0 L 93.92 12.28 L 94.8 12.28 L 94.8 15.58 Z M 251.22 15.84 Q 248.38 15.84 246.78 14.35 A 4.775 4.775 0 0 1 245.445 12.1 Q 245.18 11.163 245.18 10 A 8.151 8.151 0 0 1 245.348 8.29 Q 245.699 6.657 246.78 5.65 Q 248.38 4.16 251.22 4.16 A 8.846 8.846 0 0 1 252.97 4.323 Q 254.026 4.536 254.841 5.029 A 4.82 4.82 0 0 1 255.68 5.67 Q 257.177 7.101 257.256 9.708 A 9.707 9.707 0 0 1 257.26 10 A 8.151 8.151 0 0 1 257.092 11.711 Q 256.741 13.343 255.66 14.35 Q 254.06 15.84 251.22 15.84 Z M 252.38 11 L 252.38 9 A 2.381 2.381 0 0 0 252.356 8.648 Q 252.296 8.251 252.09 8.03 A 0.914 0.914 0 0 0 251.69 7.785 Q 251.543 7.738 251.364 7.725 A 1.972 1.972 0 0 0 251.22 7.72 A 1.724 1.724 0 0 0 250.887 7.75 Q 250.697 7.788 250.551 7.872 A 0.859 0.859 0 0 0 250.35 8.03 Q 250.136 8.259 250.08 8.678 A 2.434 2.434 0 0 0 250.06 9 L 250.06 11 A 2.381 2.381 0 0 0 250.084 11.352 Q 250.144 11.75 250.35 11.97 A 0.914 0.914 0 0 0 250.75 12.215 Q 250.897 12.262 251.076 12.275 A 1.972 1.972 0 0 0 251.22 12.28 A 1.724 1.724 0 0 0 251.553 12.25 Q 251.743 12.213 251.889 12.129 A 0.859 0.859 0 0 0 252.09 11.97 Q 252.304 11.741 252.36 11.322 A 2.434 2.434 0 0 0 252.38 11 Z M 6.6 6.56 L 7.68 6.56 A 1.724 1.724 0 0 0 8.013 6.53 Q 8.203 6.493 8.349 6.409 A 0.859 0.859 0 0 0 8.55 6.25 Q 8.764 6.021 8.82 5.602 A 2.434 2.434 0 0 0 8.84 5.28 L 8.84 4.56 A 2.381 2.381 0 0 0 8.816 4.208 Q 8.756 3.811 8.55 3.59 A 0.914 0.914 0 0 0 8.15 3.345 Q 8.003 3.298 7.824 3.285 A 1.972 1.972 0 0 0 7.68 3.28 L 6.6 3.28 L 6.6 6.56 Z M 219.06 8.52 L 221.38 8.52 L 221.38 8.28 Q 221.38 7.618 221.105 7.316 A 0.743 0.743 0 0 0 221.09 7.3 A 0.91 0.91 0 0 0 220.714 7.071 Q 220.501 7 220.22 7 A 1.724 1.724 0 0 0 219.887 7.03 Q 219.697 7.068 219.551 7.152 A 0.859 0.859 0 0 0 219.35 7.31 Q 219.136 7.539 219.08 7.958 A 2.434 2.434 0 0 0 219.06 8.28 L 219.06 8.52 Z M 121.22 11 L 121.22 10.88 A 5.451 5.451 0 0 0 120.71 10.902 Q 120.193 10.951 119.859 11.106 A 1.535 1.535 0 0 0 119.83 11.12 A 0.919 0.919 0 0 0 119.541 11.334 Q 119.381 11.515 119.348 11.78 A 1.149 1.149 0 0 0 119.34 11.92 A 0.895 0.895 0 0 0 119.373 12.17 A 0.688 0.688 0 0 0 119.55 12.47 Q 119.75 12.67 120.103 12.68 A 1.331 1.331 0 0 0 120.14 12.68 A 0.973 0.973 0 0 0 120.523 12.608 Q 120.742 12.515 120.897 12.303 A 1.179 1.179 0 0 0 120.94 12.24 A 1.555 1.555 0 0 0 121.116 11.841 Q 121.173 11.648 121.199 11.414 A 3.785 3.785 0 0 0 121.22 11 Z M 187.5 11 L 187.5 10.88 A 5.451 5.451 0 0 0 186.99 10.902 Q 186.473 10.951 186.139 11.106 A 1.535 1.535 0 0 0 186.11 11.12 A 0.919 0.919 0 0 0 185.821 11.334 Q 185.661 11.515 185.628 11.78 A 1.149 1.149 0 0 0 185.62 11.92 A 0.895 0.895 0 0 0 185.653 12.17 A 0.688 0.688 0 0 0 185.83 12.47 Q 186.03 12.67 186.383 12.68 A 1.331 1.331 0 0 0 186.42 12.68 A 0.973 0.973 0 0 0 186.803 12.608 Q 187.022 12.515 187.177 12.303 A 1.179 1.179 0 0 0 187.22 12.24 A 1.555 1.555 0 0 0 187.396 11.841 Q 187.453 11.648 187.479 11.414 A 3.785 3.785 0 0 0 187.5 11 Z" vector-effect="non-scaling-stroke" style="fill: rgb(240, 246, 252); stroke: rgb(240, 246, 252);"/>
  </g>
</svg>