<svg xmlns="http://www.w3.org/2000/svg" xmlns:xlink="http://www.w3.org/1999/xlink" xmlns:lucid="lucid" width="500" height="383"><g transform="translate(-573 -95)" lucid:page-tab-id="0_0"><path d="M683.67 339.53l.82 2.52.93 2.52 1.06 2.53 1.18 2.54 1.34 2.56 1.5 2.58 1.65 2.6 1.85 2.66 2.04 2.7 2.27 2.74 2.5 2.8 2.8 2.83 3.1 2.92 3.43 2.96 3.82 3.03 4.24 3.1 4.7 3.12 5.24 3.17 5.8 3.18 6.44 3.18 7.1 3.16 7.77 3.08 8.47 2.95 9.15 2.76 9.75 2.5 10.26 2.2 10.63 1.8 10.8 1.35 10.78.9 4.72.2v2l-4.84-.2-10.86-.9-10.88-1.38-10.7-1.8-10.35-2.2-9.85-2.54-9.23-2.78-8.55-2.98-7.86-3.1-7.15-3.2-6.5-3.22-5.88-3.23-5.3-3.2-4.8-3.2-4.3-3.12-3.88-3.07-3.5-3.02-3.17-2.96-2.85-2.9-2.57-2.86-2.3-2.8-2.1-2.76-1.9-2.72-1.7-2.68-1.53-2.66-1.38-2.63-1.24-2.62-1.1-2.6-.96-2.6-.84-2.6-.08-.27 1.92-.54zm272.3 8.22l-.03 1.75-.16 2.65-.27 2.56-.36 2.48-.45 2.4-.56 2.32-.63 2.27-.7 2.2-.82 2.18-.9 2.13-.98 2.1-1.08 2.06-1.18 2.05-1.3 2-1.38 2.02-1.52 2-1.65 2-1.8 1.98-1.94 1.98-2.12 1.98-2.3 2-2.5 1.98-2.75 2-3 1.98-3.3 2-3.6 1.97-3.96 1.96-4.37 1.94-4.8 1.9-5.32 1.85-5.85 1.76-6.44 1.67-7.1 1.5-7.74 1.3-3.3.42v-2.02l3-.38 7.68-1.3 7-1.48 6.36-1.63 5.77-1.75 5.23-1.82 4.74-1.88 4.3-1.9 3.88-1.93 3.53-1.94 3.22-1.95 2.93-1.94 2.67-1.95 2.45-1.94 2.24-1.92 2.06-1.93 1.9-1.92 1.72-1.93 1.6-1.92 1.46-1.94 1.35-1.94 1.23-1.95 1.14-1.97 1.04-2 .96-2 .86-2.07.78-2.07.7-2.14.6-2.2.53-2.24.44-2.3.35-2.4.26-2.47.16-2.6.04-1.7z"/><path d="M955.98 347.77l-2-.04.02-1h2zM687.1 337.97l-9.18 1.33 2.54-14.78z"/><path d="M688.6 338.76l-11.9 1.73 3.3-19.18zm-9.46-.65l6.45-.92-4.67-9.46z"/><use xlink:href="#a" transform="matrix(1,0,0,1,829.824783578609,406.62831057480366) translate(0 17.7734375)"/><path d="M792.43 151.02l-4.84.82-9.95 2.1-9.38 2.4-8.72 2.65-8.05 2.78-7.35 2.9-6.68 2.98-6.05 3-5.46 3-4.93 3-4.44 2.93-4 2.9-3.6 2.85-3.27 2.8-2.93 2.76-2.65 2.72-2.4 2.66-2.16 2.6-1.97 2.6-1.77 2.53-1.6 2.53-1.43 2.5-1.3 2.46-1.15 2.46-1.04 2.45-.9 2.47-.8 2.46-.7 2.47-.6 2.5-.47 2.52-.37 2.55-.28 2.6-.16 2.64-.04 1.73-2-.04.04-1.78.17-2.72.28-2.68.4-2.64.5-2.6.6-2.57.7-2.55.84-2.54.94-2.52 1.07-2.54 1.2-2.53 1.33-2.54 1.48-2.57 1.64-2.6 1.8-2.6 2.02-2.65 2.22-2.68 2.45-2.72 2.7-2.77 3-2.8 3.3-2.87 3.68-2.9 4.07-2.95 4.5-3 5-3.02 5.54-3.04 6.12-3.05 6.76-3 7.43-2.94 8.13-2.82 8.8-2.65 9.46-2.43 10.02-2.13 5.2-.88zm58.2-5.22l9.48.8 8.85 1.1 8.16 1.38 7.5 1.6 6.82 1.75 6.2 1.87 5.64 1.96 5.1 2.02 4.63 2.06 4.2 2.08 3.8 2.1 3.47 2.1 3.16 2.1 2.88 2.08 2.64 2.1 2.4 2.07 2.22 2.07 2.03 2.07 1.85 2.08 1.7 2.06 1.58 2.07 1.44 2.1 1.32 2.07 1.2 2.1 1.1 2.12 1.02 2.14.92 2.17.82 2.22.4 1.26-1.9.6-.4-1.2-.78-2.13-.88-2.1-.98-2.07-1.07-2.04-1.17-2.03-1.28-2-1.4-2-1.5-2.02-1.67-2-1.8-2-1.97-2-2.15-2.03-2.33-2.02-2.57-2.03-2.8-2.05-3.1-2.05-3.4-2.05-3.74-2.06-4.12-2.05-4.55-2.03-5.04-2-5.55-1.92-6.12-1.85-6.74-1.73-7.4-1.57-8.08-1.36-8.76-1.12-9.4-.8-9.95-.4h-4.9v-2h4.94z"/><path d="M681.02 238.3l-.02 1.02h-2l.02-1.05zM954.5 216.8l-6.73-13.4 9.17-1.4z"/><path d="M955 220l-8.74-17.38 11.9-1.82zm-5.72-15.82l4.74 9.42 1.7-10.4z"/><use xlink:href="#b" transform="matrix(1,0,0,1,792.4300309104628,138.27827910558045) translate(0.004999999999999005 14.396484375)"/><path d="M620 245.32c0-2.77 2.24-5 5-5h110c2.76 0 5 2.23 5 5v70c0 2.76-2.24 5-5 5H625c-2.76 0-5-2.24-5-5z" stroke="#99d2f2" stroke-width="2" fill="#c1e4f7"/><use xlink:href="#c" transform="matrix(1,0,0,1,640,240.315234375) translate(3.994140625 51.9921875)"/><path d="M881.8 224.82h146.4v87.82H881.8v-87.82z" stroke="#000" stroke-opacity="0" stroke-width=".29" fill="#fff"/><path d="M1024.9 220H885.1c-2.85 0-5.1 2.28-5.1 5.2v82.75h150V225.2c0-2.92-2.25-5.2-5.1-5.2zm-2.7 80.22H887.8v-72.5h134.4v72.5z" stroke="#000" stroke-opacity="0" stroke-width=".29" fill="#464655"/><path d="M880 318.34c0 2.8 2.25 5.07 5.1 5.07h139.8c2.85 0 5.1-2.27 5.1-5.06v-10.4H880v10.4zm75-6.6c2.1 0 3.9 1.78 3.9 3.94 0 2.15-1.8 3.93-3.9 3.93-2.1 0-3.9-1.77-3.9-3.92 0-2.16 1.8-3.93 3.9-3.93z" stroke="#000" stroke-opacity="0" stroke-width=".29" fill="#bec8dc"/><path d="M932.05 341.53h45.9l-1.65-12.93h-42.6l-1.65 12.93z" stroke="#000" stroke-opacity="0" stroke-width=".29" fill="#afbbd0"/><path d="M931.75 341.53c-1.5 0-2.55 1.14-2.55 2.66 0 1.38 1.05 2.52 2.55 2.52h46.5c1.5 0 2.55-1.14 2.55-2.53 0-1.53-1.05-2.67-2.55-2.67H931.75z" stroke="#000" stroke-opacity="0" stroke-width=".29" fill="#bec8dc"/><path d="M933.7 328.6h42.6l-.6-5.2h-41.4l-.6 5.2zM958.9 315.68c0 2.15-1.8 3.93-3.9 3.93-2.1 0-3.9-1.77-3.9-3.92 0-2.16 1.8-3.93 3.9-3.93 2.1 0 3.9 1.77 3.9 3.93z" stroke="#000" stroke-opacity="0" stroke-width=".29" fill="#96a5b9"/><path d="M904.9 240.53h14.7c.9 0 1.35.5 1.35 1.52v8.74c0 1-.45 1.5-1.35 1.5h-14.7c-.9 0-1.5-.5-1.5-1.5v-8.75c0-1 .6-1.52 1.5-1.52zM904.9 275.76h14.7c.9 0 1.35.5 1.35 1.4V286c0 1.02-.45 1.4-1.35 1.4h-14.7c-.9 0-1.5-.38-1.5-1.4v-8.87c0-.88.6-1.4 1.5-1.4z" stroke="#000" stroke-opacity="0" stroke-width=".29" fill="#e4eaf6"/><path d="M947.35 265v1.5l-.15 8.37c0 .76.75 1.27 1.5 1.02l2.55-1.16 2.25 5.2c.3.5.75.76 1.2.76.15 0 .45 0 .6-.13.6-.25.9-1 .6-1.64l-2.25-5.2 2.55-1.14c.75-.4.9-1.28.3-1.78l-6.75-6.1-.6-.5c-.75-.63-1.8-.12-1.8.77z" stroke="#000" stroke-opacity="0" stroke-width=".29" fill="#464655"/><path d="M909.3 240.65h5.9v8.43h-5.9z" fill="none"/><use xlink:href="#d" transform="matrix(1,0,0,1,909.296875,240.647265625) translate(0 8.4375)"/><path d="M908.7 276.1h6.22v8.43h-6.2z" fill="none"/><use xlink:href="#e" transform="matrix(1,0,0,1,908.7109375,276.096484375) translate(0 8.4375)"/><path d="M905.2 257.46h15.78v11.25H905.2z" fill="none"/><use xlink:href="#f" transform="matrix(1,0,0,1,905.1953125,257.463671875) translate(0 11.25)"/><defs><path d="M285-1169c8 382 2 780 4 1169H129v-1349h237c86 239 188 461 253 720 69-258 169-481 255-720h225V0H937c2-390-5-788 6-1169-75 255-170 488-259 729H547c-90-240-185-475-262-729" id="g"/><path d="M873-819c-18-114-119-146-250-146-163 0-245 50-245 151 0 151 170 148 294 185 182 54 388 94 388 320 0 240-189 325-439 329-245 4-410-69-454-268l159-31c24 133 136 168 295 165 144-2 270-31 270-171 0-164-195-160-331-202-167-52-350-87-350-299 0-218 173-315 413-313 220 2 373 77 412 260" id="h"/><path d="M1048-32c-2 300-135 456-433 456-222-1-358-88-400-267l184-25c22 99 100 157 222 156 184-2 248-125 248-315 0-64 3-133-2-194C807-100 706-13 524-12c-306 0-381-228-381-537 0-318 85-550 400-550 164 0 271 83 325 202h3c1-60 3-134 12-185h171c-13 339-4 702-6 1050zM585-145c210-8 284-178 284-406 0-192-52-331-177-392-33-16-69-22-104-22-223 2-259 184-259 414 0 229 31 415 256 406" id="i"/><g id="a"><use transform="matrix(0.010850694444444444,0,0,0.010850694444444444,0,0)" xlink:href="#g"/><use transform="matrix(0.010850694444444444,0,0,0.010850694444444444,13.335503472222221,0)" xlink:href="#h"/><use transform="matrix(0.010850694444444444,0,0,0.010850694444444444,26.671006944444443,0)" xlink:href="#i"/></g><path d="M875 0v-623H353V0H162v-1349h191v566h522v-566h191V0H875" id="j"/><path d="M682 16c-209 0-323-80-324-285v-671H190v-142h170l58-282h120v282h432v142H538v652c2 114 60 155 182 155 106 0 209-16 297-34v137C921-4 806 16 682 16" id="k"/><path d="M904-1102c199 0 220 177 220 381V0H956v-686c-3-114 0-215-60-264-70-33-125-4-158 71-26 56-39 140-39 252V0H531v-686c-3-114-1-215-61-264-78-41-136 24-157 84-24 69-39 159-39 259V0H105c-3-360 6-732-6-1082h149c6 50 3 123 8 175 36-100 83-195 216-195 135 0 166 79 196 196 42-105 93-196 236-196" id="l"/><path d="M736-142h380V0H134v-142h422v-1200H267v-142h469v1342" id="m"/><g id="b"><use transform="matrix(0.0087890625,0,0,0.0087890625,0,0)" xlink:href="#j"/><use transform="matrix(0.0087890625,0,0,0.0087890625,10.8017578125,0)" xlink:href="#k"/><use transform="matrix(0.0087890625,0,0,0.0087890625,21.603515625,0)" xlink:href="#l"/><use transform="matrix(0.0087890625,0,0,0.0087890625,32.4052734375,0)" xlink:href="#m"/></g><path d="M162 0v-1349h919v156H353v422h668v154H353v461h769V0H162" id="n"/><g id="c"><use transform="matrix(0.01953125,0,0,0.01953125,0,0)" xlink:href="#n"/><use transform="matrix(0.01953125,0,0,0.01953125,24.00390625,0)" xlink:href="#m"/><use transform="matrix(0.01953125,0,0,0.01953125,48.0078125,0)" xlink:href="#l"/></g><path d="M0-79v-24h200v24H0" id="o"/><use transform="matrix(0.029296875,0,0,0.029296875,0,0)" xlink:href="#o" id="d"/><path d="M118-107v75H92v-75H18v-26h74v-75h26v75h74v26h-74" id="p"/><use transform="matrix(0.029296875,0,0,0.029296875,0,0)" xlink:href="#p" id="e"/><path d="M27 0v-27h64v-190l-56 39v-29l58-41h29v221h61V0H27" id="q"/><path d="M155-56V0h-30v-56H8v-25l114-167h33v167h35v25h-35zm-30-156c-27 46-58 90-88 131h88v-131" id="r"/><g id="f"><use transform="matrix(0.0390625,0,0,0.0390625,0,0)" xlink:href="#q"/><use transform="matrix(0.0390625,0,0,0.0390625,7.8125,0)" xlink:href="#r"/></g></defs></g></svg>