<?xml version="1.0" standalone="no"?>
<!DOCTYPE svg PUBLIC "-//W3C//DTD SVG 20010904//EN"
 "http://www.w3.org/TR/2001/REC-SVG-20010904/DTD/svg10.dtd">
<svg version="1.0" xmlns="http://www.w3.org/2000/svg"
 width="512.000000pt" height="512.000000pt" viewBox="0 0 512.000000 512.000000"
 preserveAspectRatio="xMidYMid meet">
<metadata>
Created by potrace 1.14, written by Peter Selinger 2001-2017
</metadata>
<g transform="translate(0.000000,512.000000) scale(0.100000,-0.100000)"
fill="#000000" stroke="none">
<path d="M0 2560 l0 -2560 2560 0 2560 0 0 2560 0 2560 -2560 0 -2560 0 0
-2560z m1717 1974 c4 -11 -24 -44 -90 -110 -201 -198 -359 -440 -445 -686
l-31 -86 76 -99 c182 -235 181 -250 -30 -408 l-128 -96 6 -72 c11 -120 34
-246 65 -359 44 -154 150 -404 169 -396 4 2 367 287 807 633 l800 630 -190 3
c-139 2 -192 -1 -197 -9 -4 -7 -22 -57 -41 -111 l-33 -98 -377 0 -377 0 43
123 c24 67 76 215 116 330 l73 207 1208 0 c665 0 1209 -3 1208 -7 0 -5 -30
-92 -67 -195 l-67 -187 -790 -621 c-434 -342 -794 -626 -800 -631 -6 -6 80 -8
224 -7 l234 3 37 105 38 105 377 3 c356 2 376 1 371 -15 -3 -10 -55 -157 -115
-328 l-109 -310 -1047 -5 -1047 -5 55 -52 c54 -51 58 -53 114 -53 39 0 68 -6
89 -19 34 -20 64 -75 64 -114 0 -22 14 -34 98 -81 171 -97 371 -167 592 -208
195 -37 542 -26 720 22 l38 10 52 153 c29 83 61 168 71 188 18 36 68 69 106
69 10 0 96 -27 192 -60 96 -33 180 -60 187 -60 19 0 150 107 238 195 87 88
195 223 251 315 31 52 39 59 55 50 18 -10 18 -13 -7 -85 -39 -118 -154 -340
-235 -456 l-74 -105 28 -110 c32 -127 34 -161 11 -186 -22 -24 -38 -23 -171 9
-153 37 -148 42 -144 -129 3 -115 2 -137 -13 -151 -26 -27 -63 -20 -171 32
-93 45 -103 47 -127 35 -17 -10 -28 -25 -31 -47 -39 -238 -39 -237 -89 -237
-21 0 -55 19 -119 67 -85 63 -91 66 -125 57 -34 -9 -37 -13 -72 -112 -61 -172
-87 -178 -202 -52 -66 73 -75 80 -110 80 -45 0 -46 -1 -112 -109 -58 -94 -72
-107 -110 -97 -20 5 -40 30 -82 100 -55 92 -57 94 -100 99 -44 6 -45 6 -97
-51 -113 -121 -126 -129 -167 -94 -11 9 -36 60 -55 112 l-34 95 -46 13 -47 13
-81 -60 c-93 -69 -125 -76 -157 -35 -12 15 -21 35 -21 45 0 10 -5 52 -11 93
-11 74 -11 75 -55 98 l-44 23 -85 -43 c-152 -75 -182 -56 -171 111 l6 102 -34
28 c-19 15 -41 27 -48 27 -7 0 -54 -10 -105 -22 -150 -36 -170 -13 -129 147
l25 98 -26 34 c-14 18 -30 33 -37 34 -6 0 -57 0 -114 -1 -86 -1 -107 1 -123
16 -28 25 -24 51 26 157 l45 96 -17 36 c-19 40 -18 39 -136 56 -97 14 -137 35
-137 74 0 13 30 65 66 115 63 88 66 95 58 128 -9 34 -13 37 -113 73 -116 42
-133 55 -134 96 0 22 18 45 91 113 82 77 90 88 85 115 -4 26 -19 39 -104 89
-158 93 -158 115 0 210 73 44 111 73 115 88 5 19 -9 37 -90 113 -77 73 -97 96
-97 119 0 15 7 34 14 41 8 8 68 33 134 57 96 34 121 47 123 63 2 13 -22 53
-61 105 -130 173 -125 189 79 221 71 11 133 24 138 29 6 6 -13 57 -47 130 -32
66 -57 132 -57 145 0 15 10 31 25 41 22 14 44 16 166 9 l141 -7 116 114 c65
63 151 140 192 171 77 57 268 177 282 177 5 0 11 -7 15 -16z"/>
<path d="M948 3484 c-89 -48 -71 -200 27 -232 48 -16 86 -8 125 25 91 76 39
224 -78 223 -26 -1 -59 -7 -74 -16z"/>
<path d="M1593 1545 c-77 -33 -97 -146 -36 -207 59 -59 160 -46 203 25 38 61
14 145 -50 179 -41 21 -73 22 -117 3z"/>
<path d="M3633 1540 c-61 -36 -81 -102 -53 -169 25 -62 115 -90 181 -55 39 20
73 92 64 134 -13 59 -74 110 -132 110 -15 0 -42 -9 -60 -20z"/>
</g>
</svg>
